<svg id="Layer_1" data-name="Layer 1" xmlns="http://www.w3.org/2000/svg" viewBox="0 0 298 312"><path d="M95.74,192.75a273.1,273.1,0,0,1,0-73.92H202.28a275.14,275.14,0,0,1,0,73.92Z"/><path d="M199,99.9H98.63c2.27-7.8,4.26-15.42,6.73-22.89,4.39-13.29,10.13-26,19.3-36.73A60.66,60.66,0,0,1,136.2,29.82c8.08-5.58,16.64-5.56,25.09-.45,6.51,3.93,11.47,9.45,15.76,15.61,10.43,15,16.32,31.91,20.72,49.44C198.21,96.18,198.57,98,199,99.9Z"/><path d="M98.93,211.64H199.12c-1.24,4.8-2.33,9.44-3.64,14-3.79,13.25-8.77,26-16.22,37.66-4,6.32-8.67,12.12-14.69,16.69-10.26,7.78-20.44,8.12-30.6.21a63.88,63.88,0,0,1-12-12.43C109.66,251.11,103.58,231.8,98.93,211.64Z"/><path d="M221.09,192.66a299.81,299.81,0,0,0,0-74h2.87c18.87,0,37.74,0,56.61,0,2,0,3,.36,3.56,2.59A138.42,138.42,0,0,1,284,190.6c-.36,1.41-.59,2.42-2.49,2.41-19.84-.08-39.68-.06-59.52-.08A4.09,4.09,0,0,1,221.09,192.66Z"/><path d="M77,193H74.06c-18.87,0-37.75,0-56.62,0-2,0-3-.44-3.53-2.63a138.54,138.54,0,0,1,.1-69.44c.43-1.66.94-2.39,2.84-2.38,19.45.08,38.9,0,58.35,0,.47,0,.94.06,1.72.11A300.46,300.46,0,0,0,77,193Z"/><path d="M218.19,99.78c-6.54-29.27-15.61-57.32-37.57-79.19,9.52-.81,41.24,14.63,57.09,27.84a140.19,140.19,0,0,1,38.87,51.35Z"/><path d="M117.65,20.34C95.39,42.5,86.34,70.58,79.77,99.86H21.71C30.77,67.12,83.35,23.49,117.65,20.34Z"/><path d="M218.24,211.65h58.39a138.35,138.35,0,0,1-35.37,48.46A139.88,139.88,0,0,1,180,291.66C202.54,269.21,211.65,241.12,218.24,211.65Z"/><path d="M117.87,291.23c-33.82-2.63-85.79-45.67-96.17-79.48H79.89a209.64,209.64,0,0,0,13,42.53C99,268,106.57,280.69,117.87,291.23Z"/></svg>