<svg width="103" height="103" viewBox="0 0 103 103" fill="none" xmlns="http://www.w3.org/2000/svg">
<path d="M25.2588 75.9606C25.2588 77.7412 24.061 78.9171 22.2566 78.9171H19.9324V73.0089H22.2604C24.061 73.0089 25.2588 74.181 25.2588 75.9606ZM24.0867 75.9606C24.0867 74.8161 23.3362 74.0532 22.2566 74.0532H21.0921V77.868H22.2566C23.3448 77.867 24.0867 77.1079 24.0867 75.9606Z" fill="#1F2873"/>
<path d="M30.2019 77.2004H26.9898C27.0661 77.724 27.522 78.0692 28.1963 78.0692C28.6436 78.0692 29.0908 77.9176 29.3607 77.6734L29.9845 78.3143C29.5458 78.7616 28.8801 79.0229 28.1543 79.0229C26.7457 79.0229 25.8511 78.1713 25.8511 76.838C25.8511 75.5391 26.7371 74.6617 28.0446 74.6617C29.5524 74.6617 30.3879 75.6573 30.2019 77.2004ZM27.0051 76.4584H29.1481C29.1051 75.9186 28.7008 75.581 28.0761 75.581C27.4858 75.581 27.09 75.9015 27.0051 76.4584Z" fill="#1F2873"/>
<path d="M35.1793 74.7465L33.4159 78.9133H32.2438L30.4718 74.7465H31.6954L32.2352 76.096L32.8427 77.7412L33.4407 76.096L33.9814 74.7465H35.1793Z" fill="#1F2873"/>
<path d="M39.7332 77.2004H36.5202C36.5955 77.724 37.0514 78.0692 37.7257 78.0692C38.173 78.0692 38.6202 77.9176 38.8901 77.6734L39.5139 78.3143C39.0752 78.7616 38.4095 79.0229 37.6837 79.0229C36.2751 79.0229 35.3815 78.1713 35.3815 76.838C35.3815 75.5391 36.2665 74.6617 37.575 74.6617C39.0837 74.6617 39.9192 75.6573 39.7332 77.2004ZM36.5364 76.4584H38.6794C38.6374 75.9186 38.2321 75.581 37.6084 75.581C37.0171 75.581 36.6222 75.9015 36.5364 76.4584Z" fill="#1F2873"/>
<path d="M40.5515 73.0089H41.6768V78.9133H40.5515V73.0089Z" fill="#1F2873"/>
<path d="M42.4999 76.8294C42.4999 75.5562 43.3773 74.6531 44.7525 74.6531C46.1278 74.6531 47.0042 75.5562 47.0042 76.8294C47.0042 78.1026 46.1268 79.0058 44.7525 79.0058C43.3782 79.0058 42.4999 78.1083 42.4999 76.8294ZM45.8913 76.8294C45.8913 76.1618 45.444 75.6316 44.7525 75.6316C44.0611 75.6316 43.6138 76.1637 43.6138 76.8294C43.6138 77.4951 44.0601 78.0273 44.7525 78.0273C45.4449 78.0273 45.8913 77.4961 45.8913 76.8294Z" fill="#1F2873"/>
<path d="M52.344 76.8294C52.344 78.1122 51.5172 79.0058 50.3193 79.0058C50.0683 79.0134 49.8182 78.9712 49.5836 78.8815C49.349 78.7917 49.1346 78.6564 48.9527 78.4831V80.7787H47.8311V74.7465H48.801L48.8773 75.2444C49.214 74.8629 49.729 74.6531 50.3193 74.6531C51.5172 74.6531 52.344 75.5477 52.344 76.8294ZM51.2301 76.8294C51.2301 76.1294 50.758 75.6316 50.0914 75.6316C49.4248 75.6316 48.9469 76.1294 48.9469 76.8294C48.9469 77.5294 49.4238 78.0273 50.0914 78.0273C50.759 78.0273 51.2301 77.5294 51.2301 76.8294Z" fill="#1F2873"/>
<path d="M57.2699 77.2004H54.0559C54.1322 77.724 54.5871 78.0692 55.2624 78.0692C55.7096 78.0692 56.156 77.9176 56.4259 77.6734L57.0506 78.3143C56.6119 78.7616 55.9452 79.0229 55.2204 79.0229C53.8118 79.0229 52.9172 78.1713 52.9172 76.838C52.9172 75.5391 53.8032 74.6617 55.1107 74.6617C56.6204 74.6617 57.4549 75.6573 57.2699 77.2004ZM54.075 76.4584H56.217C56.1751 75.9186 55.7697 75.581 55.146 75.581C54.5519 75.581 54.157 75.9015 54.075 76.4584Z" fill="#1F2873"/>
<path d="M61.3861 75.0412L60.8969 75.9148C60.7013 75.7709 60.4644 75.694 60.2216 75.6955C59.6065 75.6955 59.2098 76.1256 59.2098 76.8847V78.9181H58.0882V74.7465H59.0581L59.1535 75.2692C59.2832 75.0787 59.4582 74.9235 59.6628 74.8174C59.8674 74.7114 60.0952 74.6579 60.3256 74.6616C60.7137 74.6537 61.0912 74.7888 61.3861 75.0412Z" fill="#1F2873"/>
<path d="M68.1173 77.8585V78.9133H63.4108V78.4154L66.4474 74.0379H63.6301V73.0089H68.0944V73.4857L65.0578 77.8547L68.1173 77.8585Z" fill="#1F2873"/>
<path d="M68.6237 76.8294C68.6237 75.5562 69.5002 74.6531 70.8754 74.6531C72.2507 74.6531 73.1281 75.5562 73.1281 76.8294C73.1281 78.1026 72.2507 79.0058 70.8754 79.0058C69.5002 79.0058 68.6237 78.1083 68.6237 76.8294ZM72.0142 76.8294C72.0142 76.1618 71.5669 75.6316 70.8754 75.6316C70.184 75.6316 69.7367 76.1637 69.7367 76.8294C69.7367 77.4951 70.184 78.0273 70.8754 78.0273C71.5669 78.0273 72.0142 77.4961 72.0142 76.8294Z" fill="#1F2873"/>
<path d="M78.1131 76.5824V78.9104H76.9906V76.6501C76.9906 76.0083 76.6454 75.6373 76.0884 75.6373C75.4809 75.6373 75.0765 76.0846 75.0765 76.7255V78.9104H73.954V74.7465H74.9239L75.0002 75.2234C75.1757 75.0386 75.388 74.8928 75.6235 74.7954C75.8589 74.698 76.1122 74.6511 76.3669 74.6578C77.4293 74.6616 78.1131 75.4046 78.1131 76.5824Z" fill="#1F2873"/>
<path d="M83.2326 77.2004H80.0157C80.092 77.724 80.5479 78.0692 81.2222 78.0692C81.6695 78.0692 82.1168 77.9176 82.3866 77.6734L83.0104 78.3143C82.5717 78.7616 81.906 79.0229 81.1802 79.0229C79.7716 79.0229 78.877 78.1713 78.877 76.838C78.877 75.5391 79.763 74.6617 81.0705 74.6617C82.5831 74.6617 83.4186 75.6573 83.2326 77.2004ZM80.0358 76.4584H82.1787C82.1358 75.9186 81.7315 75.581 81.1068 75.581C80.5164 75.581 80.1206 75.9015 80.0358 76.4584Z" fill="#1F2873"/>
<path d="M22.6848 22.2223H19.7417V67.7826H22.6848V22.2223Z" fill="url(#paint0_linear_6_165)"/>
<path d="M40.685 59.7419H31.6849V30.2648H40.685C49.0328 30.2648 54.837 36.1339 54.837 45.0034C54.837 53.8728 49.0976 59.7419 40.685 59.7419Z" fill="url(#paint1_linear_6_165)"/>
<path d="M60.9588 60.5754H82.5497V67.7835H42.3845C55.3883 67.0749 63.8982 58.1978 63.8982 45.0034C63.8982 31.8089 55.3825 22.9261 42.3712 22.2213H82.5497L60.9588 60.5754Z" fill="url(#paint2_linear_6_165)"/>
<defs>
<linearGradient id="paint0_linear_6_165" x1="21.2132" y1="22.6428" x2="21.2132" y2="66.188" gradientUnits="userSpaceOnUse">
<stop stop-color="#965CF2"/>
<stop offset="1" stop-color="#FF8ADC"/>
</linearGradient>
<linearGradient id="paint1_linear_6_165" x1="43.261" y1="22.6428" x2="43.261" y2="66.188" gradientUnits="userSpaceOnUse">
<stop stop-color="#965CF2"/>
<stop offset="1" stop-color="#FF8ADC"/>
</linearGradient>
<linearGradient id="paint2_linear_6_165" x1="62.4609" y1="22.6428" x2="62.4609" y2="66.188" gradientUnits="userSpaceOnUse">
<stop stop-color="#965CF2"/>
<stop offset="1" stop-color="#FF8ADC"/>
</linearGradient>
</defs>
</svg>
