<svg width="639" height="608" viewBox="0 0 639 608" fill="none" xmlns="http://www.w3.org/2000/svg">
<path fill-rule="evenodd" clip-rule="evenodd" d="M415.831 137.207C416.165 137.402 416.616 137.562 417.149 137.821C418.887 141.999 419.544 143.224 419.199 143.639C418.922 143.994 418.954 143.799 418.805 144.637C418.602 145.784 422.617 150.739 423.239 152.309C423.809 153.632 423.859 155.122 423.377 156.48C422.445 159.15 420.996 161.612 419.114 163.725C417.522 165.5 415.764 166.654 414.236 166.313C412.353 165.887 412.673 164.201 412.957 162.532C413.056 161.936 414.19 160.619 414.105 160.047C413.6 156.703 411.152 153.789 409.354 150.892C407.813 149.472 405.215 147.949 403.776 146.277C401.698 143.881 401.29 141.36 403.887 139.887C404.711 139.418 406.782 137.093 407.841 137.178C409.859 137.345 413.263 135.705 415.831 137.207Z" fill="#202249"/>
<path fill-rule="evenodd" clip-rule="evenodd" d="M346.338 127.625C344.942 131.427 346.032 134.8 349.088 136.252L349.148 136.309L349.504 136.436C349.83 136.564 350.165 136.67 350.505 136.752C354.165 137.839 359.636 138.822 362.979 139.461C376.324 142.006 396.202 143.597 405.542 147.157C409.205 144.47 410.289 139.479 407.894 136.483C397.708 131.633 383.948 125.336 378.182 123.198C376.625 122.692 375.001 122.419 373.364 122.389C381.958 114.647 391.061 106.258 394.599 99.1082C397.086 94.0494 397.506 87.0382 399.25 82.6255C385.216 86.7293 382.531 78.2697 379.955 75.2948C377.745 78.5324 377.798 77.9324 375.56 81.3937C367.992 93.1087 356.84 109.694 349.269 122.023C348.022 123.784 346.832 125.847 346.338 127.625Z" fill="url(#paint0_linear_4_14)"/>
<g style="mix-blend-mode:multiply" opacity="0.3">
<path fill-rule="evenodd" clip-rule="evenodd" d="M392.123 129.152C386.403 126.564 381.209 124.313 378.2 123.199C376.643 122.692 375.019 122.419 373.382 122.389C381.976 114.647 391.079 106.258 394.617 99.1082C397.104 94.0494 397.524 87.0382 399.268 82.6255C395.314 83.7793 392.262 83.939 389.86 83.5059L390.237 86.243C379.411 97.0137 359.722 122.045 357.906 138.393C364.521 139.933 382.598 142.248 385.497 142.574C386.254 137.725 389.405 133.863 392.137 129.152H392.123ZM382.257 78.4827C381.348 77.2579 380.655 76.0829 379.973 75.2877C378.551 77.3467 378.075 77.8543 377.329 78.8377L382.257 78.4827Z" fill="#1E2353"/>
</g>
<path fill-rule="evenodd" clip-rule="evenodd" d="M390.375 191.486C392.347 194.216 387.032 207.923 385.756 210.809C384.612 213.354 384.978 214.916 387.679 214.955C389.81 214.987 393.185 211.973 395.243 210.003C399.104 206.308 399.325 202.548 400.447 200.936L401.762 200.514C402.721 199.971 405.571 196.254 405.723 194.859C405.319 193.555 404.829 192.279 404.256 191.039C402.156 187.166 401.695 188.859 398.927 186.491C395.751 188.778 397.992 189.69 390.375 191.486Z" fill="#202249"/>
<path fill-rule="evenodd" clip-rule="evenodd" d="M365.179 144.513C370.941 155.663 385.28 180.804 390.343 191.983C394.806 192.924 399.335 190.318 399.726 186.811C396.468 176.093 391.178 158.45 388.563 152.823C386.837 149.106 383.611 144.147 380.701 140.366C389.228 128.46 402.728 109.712 406.608 98.7248C411.909 83.7758 405.823 75.2487 397.655 70.5485C394.752 68.88 391.615 71.5567 390.151 69.771C386.663 76.5693 383.515 85.8099 381.475 94.1275C378.633 105.729 365.065 130.338 364.038 138.616C363.883 140.222 364.164 141.839 364.852 143.299C364.937 143.693 365.044 144.094 365.179 144.513Z" fill="url(#paint1_linear_4_14)"/>
<path opacity="0.3" fill-rule="evenodd" clip-rule="evenodd" d="M593.706 588L201.351 367.481C196.398 365.227 189.122 363.104 184.266 366.061L171.831 373.644C169.344 375.167 161.112 380.233 166.608 383.229C182.788 391.997 545.072 596.744 561.5 605.651C564.609 607.333 569.153 607.937 573.935 607.536C578.717 607.134 583.616 605.842 587.389 603.513L592.363 600.446C595.874 598.281 597.817 595.916 598.002 593.648C598.186 591.38 596.748 589.374 593.706 588Z" fill="#955CF1"/>
<path fill-rule="evenodd" clip-rule="evenodd" d="M246.362 8.18559C243.654 6.65199 240.485 6.08044 237.515 7.19869L230.879 9.79019C228.466 22.2578 572.773 594.223 575.857 597.393L581.783 595.157C585.673 593.627 587.716 589.58 588.285 585.646L638.319 244.392C638.32 244.379 638.32 244.366 638.319 244.353C639.133 238.616 637.406 232.638 634.247 227.845C632.546 225.261 630.311 222.875 627.565 221.406L246.362 8.18559Z" fill="url(#paint2_linear_4_14)"/>
<path fill-rule="evenodd" clip-rule="evenodd" d="M621.017 223.93L239.8 10.7096C232.591 6.71589 225.727 10.5499 224.452 19.2296L174.417 360.484C173.145 369.178 177.938 379.469 185.147 383.46L566.364 596.68C573.573 600.673 580.455 596.85 581.73 588.16L631.768 246.916C633.04 238.226 628.24 227.927 621.017 223.93Z" fill="url(#paint3_linear_4_14)"/>
<path fill-rule="evenodd" clip-rule="evenodd" d="M621.017 223.933L239.8 10.7096C232.591 6.71589 225.727 10.5499 224.452 19.2296L222.764 30.7387L630.059 258.56L631.768 246.916C633.04 238.226 628.24 227.927 621.017 223.933Z" fill="#4A9FF8"/>
<path fill-rule="evenodd" clip-rule="evenodd" d="M237.43 19.2048C240.322 19.8651 242.542 23.3051 242.404 26.887C242.265 30.4689 239.785 32.8368 236.897 32.1765C234.008 31.5162 231.784 28.0763 231.923 24.4943C232.062 20.9124 234.556 18.5445 237.43 19.2048Z" fill="#5858F0"/>
<path fill-rule="evenodd" clip-rule="evenodd" d="M250.611 26.745C253.499 27.4053 255.72 30.8452 255.585 34.4272C255.45 38.0091 252.966 40.377 250.074 39.7167C247.182 39.0564 244.962 35.6164 245.1 32.0345C245.239 28.4525 247.733 26.0989 250.611 26.745Z" fill="#5858F0"/>
<path fill-rule="evenodd" clip-rule="evenodd" d="M264.854 35.0591C267.746 35.7194 269.967 39.1594 269.828 42.7413C269.689 46.3232 267.21 48.6911 264.318 48.0273C261.426 47.3634 259.209 43.927 259.344 40.3451C259.479 36.7631 261.966 34.3953 264.854 35.0591Z" fill="#5858F0"/>
<path style="mix-blend-mode:multiply" opacity="0.5" fill-rule="evenodd" clip-rule="evenodd" d="M574.66 342.237L506.183 304.671C502.207 302.474 498.32 302.161 495.07 303.425C490.906 305.047 487.79 309.258 486.898 315.392L479.135 371.038C477.533 381.962 483.558 394.894 492.636 399.914L561.091 437.48C570.155 442.5 578.802 437.693 580.405 426.773L588.164 371.123C589.766 360.2 583.719 347.253 574.66 342.237Z" fill="url(#paint4_linear_4_14)"/>
<path style="mix-blend-mode:multiply" opacity="0.5" fill-rule="evenodd" clip-rule="evenodd" d="M474.403 146.526L624.548 219.698L620.587 223.77L606.173 324.416C604.702 334.74 596.844 339.326 588.637 334.626L448.112 254.321L435.905 227.111L474.403 146.526Z" fill="url(#paint5_linear_4_14)"/>
<path style="mix-blend-mode:multiply" opacity="0.5" fill-rule="evenodd" clip-rule="evenodd" d="M285.869 301.806L193.045 250.395L189.939 255.131L174.698 358.869L270.844 412.119C281.019 417.753 290.74 412.357 292.516 400.095L301.022 334.242C302.837 321.981 296.051 307.443 285.869 301.806Z" fill="url(#paint6_linear_4_14)"/>
<path fill-rule="evenodd" clip-rule="evenodd" d="M281.762 324.555L270.674 397.365L272.45 397.578L277.25 395.714C282.515 393.645 285.279 388.167 286.05 382.846L294.222 319.716C294.223 319.699 294.223 319.683 294.222 319.666C295.323 311.899 292.989 303.815 288.715 297.33C286.416 293.833 283.386 290.627 279.673 288.618L87.2381 182.04C83.5787 179.963 79.2905 179.2 75.2723 180.705L71.0408 182.356C68.9092 183.154 68.2519 183.776 68.2661 183.928C70.2628 202.534 284.565 305.473 281.762 324.555Z" fill="#D0E7FF"/>
<path fill-rule="evenodd" clip-rule="evenodd" d="M274.806 290.51L82.4028 183.943C78.1394 181.575 73.94 181.241 70.4404 182.601C65.9568 184.347 62.6029 188.881 61.633 195.484L53.4615 258.613C51.7384 270.375 58.2223 284.298 67.9783 289.701L260.385 396.268C270.141 401.668 279.449 396.495 281.176 384.741L289.347 321.608C291.077 309.851 284.558 295.913 274.806 290.51Z" fill="url(#paint7_linear_4_14)"/>
<path opacity="0.5" fill-rule="evenodd" clip-rule="evenodd" d="M272.521 310.156L139.727 237.178C139.307 236.917 138.834 236.753 138.342 236.698C137.851 236.642 137.353 236.697 136.885 236.859C135.819 237.274 135.013 238.36 134.778 239.937L134.043 244.36C133.631 247.172 135.183 250.501 137.514 251.79L270.301 324.767C272.631 326.06 274.859 324.824 275.275 322.013L276.01 317.582C276.422 314.771 274.866 311.441 272.532 310.149L272.521 310.156ZM198.576 327.32C200.911 328.612 202.467 331.935 202.055 334.754L201.319 339.184C200.907 341.996 198.683 343.231 196.345 341.942L129.552 306.023C127.218 304.731 125.669 301.408 126.081 298.593L126.813 294.163C127.044 292.583 127.847 291.5 128.92 291.081C129.388 290.921 129.885 290.866 130.377 290.921C130.868 290.977 131.342 291.141 131.762 291.401L198.555 327.32H198.576ZM268.567 337.26C270.897 338.552 272.454 341.875 272.042 344.694L271.31 349.124C270.897 351.936 268.673 353.171 266.336 351.882L133.538 278.912C131.208 277.62 129.655 274.297 130.067 271.482L130.803 267.052C131.034 265.472 131.837 264.386 132.906 263.97C133.376 263.807 133.877 263.751 134.372 263.806C134.867 263.861 135.343 264.027 135.766 264.29L268.567 337.26Z" fill="#FFFCF1"/>
<path opacity="0.5" fill-rule="evenodd" clip-rule="evenodd" d="M97.4205 235.886C91.1391 232.407 84.4811 237.1 84.5486 246.181C84.5771 250.881 86.5737 255.716 89.7215 258.748C90.4835 259.491 91.3386 260.132 92.2653 260.655C98.5325 264.126 105.162 259.437 105.112 250.402C105.112 245.695 103.116 240.817 99.9856 237.814C99.2161 237.066 98.3541 236.419 97.4205 235.89V235.886ZM91.3807 264.915C90.1369 264.213 88.9882 263.355 87.9629 262.362C83.7208 258.294 81.0669 251.78 81.0065 245.453C80.9283 233.277 89.8672 226.951 98.3087 231.608C99.5715 232.32 100.735 233.195 101.769 234.211C105.997 238.268 108.651 244.782 108.679 251.109C108.733 263.253 99.7973 269.569 91.3807 264.9V264.915ZM120.127 254.566C121.597 255.383 122.471 257.52 122.073 259.359L120.542 266.491C120.151 268.308 118.641 269.125 117.171 268.312L116.421 267.893C116.174 267.739 115.898 267.639 115.61 267.597C115.323 267.555 115.03 267.573 114.749 267.651C114.469 267.728 114.208 267.862 113.982 268.045C113.756 268.227 113.57 268.455 113.437 268.713C113.017 269.412 112.56 270.089 112.069 270.74C111.305 271.741 111.181 273.346 111.767 274.776L112.161 275.746C112.918 277.588 112.463 279.69 111.159 280.393L105.976 283.183C105.65 283.351 105.286 283.433 104.92 283.42C104.553 283.407 104.196 283.3 103.883 283.108C103.112 282.645 102.521 281.934 102.206 281.092L101.805 280.148C101.489 279.316 100.904 278.615 100.142 278.156C99.7647 277.941 99.3363 277.832 98.902 277.84C98.1701 277.84 97.4276 277.815 96.6922 277.748C95.5126 277.634 94.5249 278.458 94.2265 279.878L94.0275 280.808C93.6367 282.625 92.1268 283.442 90.6559 282.629L84.8933 279.434C83.4224 278.618 82.5484 276.484 82.9392 274.663L83.1382 273.736C83.2753 273.011 83.2452 272.264 83.0501 271.553C82.8549 270.841 82.4998 270.183 82.0119 269.629C81.3902 268.944 80.8146 268.241 80.2355 267.517C79.9417 267.116 79.5679 266.782 79.1377 266.533C78.8269 266.345 78.4731 266.24 78.11 266.227C77.7468 266.214 77.3864 266.293 77.0629 266.459L76.3878 266.814C76.0619 266.983 75.6977 267.066 75.3304 267.054C74.9631 267.041 74.6053 266.934 74.2917 266.743C73.5204 266.279 72.9283 265.568 72.6112 264.726L69.6197 257.413C68.8665 255.571 69.3177 253.469 70.618 252.766L71.3002 252.411C72.3163 251.865 72.835 250.477 72.6183 248.932C72.4797 247.953 72.3838 246.969 72.3199 245.986C72.2275 244.467 71.421 243.022 70.2947 242.4L69.5451 241.982C68.0742 241.169 67.2002 239.035 67.5911 237.214L69.1259 230.082C69.5238 228.239 71.0337 227.427 72.5046 228.239L73.2542 228.658C73.5005 228.811 73.7756 228.91 74.0623 228.951C74.349 228.992 74.6411 228.974 74.9202 228.897C75.1994 228.82 75.4597 228.686 75.6847 228.504C75.9097 228.322 76.0947 228.095 76.228 227.838C76.6447 227.138 77.1013 226.463 77.5958 225.815C78.3561 224.831 78.4804 223.227 77.8942 221.793L77.4963 220.827C76.7502 218.967 77.1979 216.883 78.5017 216.159L83.6711 213.369C83.9973 213.199 84.3617 213.117 84.729 213.13C85.0963 213.143 85.4539 213.251 85.7673 213.443C86.5376 213.907 87.1285 214.618 87.4442 215.46L87.8563 216.386C88.1696 217.217 88.7541 217.919 89.5155 218.378C89.8929 218.596 90.323 218.706 90.759 218.697C91.4964 218.676 92.2345 218.701 92.9688 218.772C94.1484 218.903 95.1325 218.062 95.4345 216.674L95.6334 215.743C96.0278 213.901 97.5377 213.088 99.0086 213.901L104.771 217.096C106.242 217.909 107.116 220.046 106.718 221.881L106.519 222.815C106.382 223.534 106.412 224.276 106.605 224.982C106.798 225.688 107.15 226.341 107.635 226.89C108.257 227.572 108.85 228.289 109.411 229.02C109.705 229.419 110.079 229.751 110.509 229.997C110.818 230.187 111.172 230.294 111.534 230.308C111.897 230.322 112.258 230.241 112.58 230.075L113.266 229.72C113.592 229.552 113.956 229.471 114.323 229.484C114.689 229.498 115.046 229.606 115.359 229.798C116.129 230.261 116.721 230.97 117.039 231.811L120.031 239.124C120.78 240.988 120.333 243.068 119.029 243.792L118.343 244.147C117.33 244.694 116.812 246.082 117.032 247.605C117.167 248.585 117.27 249.568 117.33 250.551C117.423 252.074 118.226 253.515 119.356 254.14L120.127 254.566Z" fill="#FFFCF1"/>
<path style="mix-blend-mode:multiply" opacity="0.5" fill-rule="evenodd" clip-rule="evenodd" d="M264.165 61.0664L222.64 41.0089L206.25 143.483L204.14 157.882L247.317 181.17C254.817 185.32 261.976 181.344 263.305 172.295L275.349 84.965C276.671 75.9374 271.665 65.2199 264.165 61.0664Z" fill="url(#paint8_linear_4_14)"/>
<path fill-rule="evenodd" clip-rule="evenodd" d="M259.102 85.4371L246.163 168.969L247.516 169.132L251.208 167.712C255.254 166.122 257.379 161.911 257.958 157.818L268.641 81.7239C268.643 81.7097 268.643 81.6954 268.641 81.6813C269.491 75.7102 267.693 69.4941 264.407 64.5064C262.63 61.819 260.31 59.3553 257.454 57.8075L178.066 14.675C175.249 13.0775 171.952 12.4847 168.861 13.6455L165.606 14.9164C163.968 15.5341 163.475 16.024 163.475 16.127C165.009 30.4335 261.259 70.765 259.102 85.4371Z" fill="#D0E7FF"/>
<path fill-rule="evenodd" clip-rule="evenodd" d="M253.752 59.2559L174.343 16.1376C171.056 14.3165 167.837 14.0609 165.144 15.1081C161.698 16.45 159.105 19.9326 158.373 25.0126L147.689 101.11C146.364 110.152 151.349 120.859 158.849 125.013L238.261 168.134C245.765 172.288 252.924 168.308 254.249 159.259L264.932 83.1617C266.261 74.1304 261.252 63.4094 253.752 59.2559Z" fill="url(#paint9_linear_4_14)"/>
<path fill-rule="evenodd" clip-rule="evenodd" d="M239.039 147.768L159.268 104.98C157.428 103.993 155.669 105.008 155.314 107.291C154.958 109.499 156.163 112.098 158.003 113.085L237.785 155.873C239.626 156.863 241.42 155.873 241.775 153.576C242.13 151.375 240.89 148.755 239.054 147.768H239.039ZM242.592 124.604C244.429 125.591 245.655 128.211 245.314 130.412C244.958 132.695 243.182 133.696 241.324 132.709L161.563 89.935C159.723 88.9481 158.525 86.3495 158.874 84.1414C159.229 81.8588 161.005 80.8435 162.828 81.8304L242.606 124.619L242.592 124.604ZM250.799 72.0643L171.035 29.2904C169.198 28.2999 167.436 29.3188 167.095 31.5233L166.203 37.2033C165.848 39.4079 167.059 42.0065 168.896 42.9969L248.675 85.7815C250.511 86.7684 252.302 85.7815 252.65 83.5628L253.535 77.8828C253.89 75.6818 252.65 73.0654 250.813 72.075L250.799 72.0643ZM246.181 101.615C248.017 102.601 249.25 105.182 248.909 107.387C248.554 109.709 246.777 110.667 244.923 109.68L165.159 66.9026C163.318 65.9193 162.117 63.3526 162.458 61.1516C162.814 58.8299 164.59 57.8537 166.416 58.837L246.181 101.615Z" fill="#FFFCF1"/>
<path fill-rule="evenodd" clip-rule="evenodd" d="M571.039 368.156L561.599 426.333L563.07 426.51L567.085 424.952C571.487 423.22 573.796 418.64 574.443 414.192L581.431 364.101C581.431 364.101 581.431 364.07 581.431 364.059C582.355 357.566 580.401 350.807 576.813 345.382C574.891 342.457 572.361 339.78 569.252 338.098L507.607 304.284C504.545 302.548 500.96 301.902 497.599 303.166L494.046 304.547C492.27 305.218 491.716 305.75 491.726 305.86C493.432 321.42 573.388 352.198 571.039 368.156Z" fill="#D0E7FF"/>
<path fill-rule="evenodd" clip-rule="evenodd" d="M565.224 339.688L503.582 305.874C500.008 303.894 496.505 303.613 493.581 304.753C489.833 306.212 487.026 310.003 486.216 315.527L479.231 365.617C477.788 375.447 483.21 387.091 491.367 391.61L553.012 425.41C561.184 429.926 568.954 425.602 570.396 415.772L577.381 365.678C578.827 355.862 573.381 344.207 565.224 339.688Z" fill="white"/>
<path fill-rule="evenodd" clip-rule="evenodd" d="M538.371 343.164C538.827 344.045 539.005 345.044 538.879 346.029C538.794 346.739 538.407 347.992 537.76 349.696L524.615 386.147C524.188 387.365 523.801 388.277 523.52 388.959C523.24 389.64 522.835 390.045 522.33 390.23C521.826 390.414 521.264 390.293 520.437 389.793C518.468 388.575 517.594 386.854 517.843 384.766C518.109 383.473 518.472 382.202 518.93 380.964L532.029 344.495C532.701 342.56 533.294 341.3 533.806 340.725C534.317 340.15 535.11 340.207 536.215 340.892C537.14 341.424 537.891 342.213 538.375 343.164H538.371ZM541.878 352.632L540.673 362.767L560.082 385.26L538.329 382.508L537.121 392.69L568.421 395.136L569.448 386.506L541.878 352.632ZM487.164 344.896L514.741 378.806L515.949 368.624L496.636 345.989L518.308 348.929L519.527 338.662L488.22 336.177L487.164 344.896Z" fill="url(#paint10_linear_4_14)"/>
<path fill-rule="evenodd" clip-rule="evenodd" d="M329.007 345.45C330.116 337.878 335.886 334.534 341.897 337.995L431.243 388.334C437.247 391.791 441.223 400.759 440.125 408.32L428.216 489.132C427.108 496.704 421.331 500.049 415.327 496.587L325.98 446.248C319.969 442.787 315.997 433.823 317.098 426.262L329.007 345.45Z" fill="white"/>
<path fill-rule="evenodd" clip-rule="evenodd" d="M339.879 427.827L371.044 384.691L377.088 430.433L392.272 413.943L401.211 462.859L339.879 427.827Z" fill="url(#paint11_linear_4_14)"/>
<path fill-rule="evenodd" clip-rule="evenodd" d="M391.221 386.605C394.553 387.283 397.062 391.181 396.823 395.313C396.585 399.445 393.693 402.239 390.361 401.561C387.028 400.883 384.517 396.985 384.755 392.857C384.993 388.728 387.888 385.927 391.221 386.605Z" fill="#FFDB59"/>
<path opacity="0.2" fill-rule="evenodd" clip-rule="evenodd" d="M336.266 357.016C337.186 350.725 341.982 347.946 346.974 350.821L421.228 392.647C426.202 395.519 429.524 402.963 428.6 409.254L418.727 476.402C417.806 482.693 413.007 485.469 408.015 482.597L333.779 440.771C328.784 437.895 325.487 430.455 326.407 424.164L336.266 357.016Z" fill="url(#paint12_linear_4_14)"/>
<path fill-rule="evenodd" clip-rule="evenodd" d="M449.583 415.427C450.691 407.855 456.465 404.508 462.476 407.972L551.822 458.315C557.826 461.773 561.802 470.74 560.704 478.301L548.82 559.114C547.712 566.686 541.935 570.03 535.927 566.569L446.584 516.226C440.573 512.765 436.601 503.801 437.702 496.243L449.583 415.427Z" fill="white"/>
<path fill-rule="evenodd" clip-rule="evenodd" d="M460.454 497.805L491.623 454.665L497.667 500.411L512.848 483.921L521.79 532.833L460.454 497.805Z" fill="url(#paint13_linear_4_14)"/>
<path fill-rule="evenodd" clip-rule="evenodd" d="M511.8 456.582C515.132 457.261 517.641 461.158 517.403 465.287C517.165 469.416 514.269 472.217 510.936 471.539C507.604 470.861 505.096 466.963 505.334 462.834C505.572 458.705 508.464 455.904 511.8 456.582Z" fill="#FFDB59"/>
<path opacity="0.2" fill-rule="evenodd" clip-rule="evenodd" d="M456.841 426.993C457.761 420.703 462.558 417.92 467.553 420.799L541.807 462.625C546.781 465.497 550.099 472.937 549.179 479.232L539.306 546.376C538.385 552.667 533.582 555.446 528.594 552.574L454.34 510.745C449.345 507.869 446.044 500.432 446.968 494.142L456.841 426.993Z" fill="url(#paint14_linear_4_14)"/>
<path fill-rule="evenodd" clip-rule="evenodd" d="M314.494 9.25415C306.543 13.9188 310.352 24.6931 317.578 36.0851C327.831 52.2482 303.011 70.4384 336.742 79.6436C333.232 69.7781 347.844 66.1713 355.028 52.699C363.313 37.1607 358.72 21.5727 348.075 8.29565C339.396 -2.5141 323.55 -2.365 314.494 9.25415Z" fill="url(#paint15_linear_4_14)"/>
<path fill-rule="evenodd" clip-rule="evenodd" d="M330.24 111.381L332.184 118.708C332.795 120.277 333.164 120.699 335.42 119.684C336.65 119.084 336.262 116.521 335.921 114.647C335.623 113.12 335.652 111.547 336.006 110.032C336.258 109.252 336.757 108.575 337.428 108.104C338.774 107.021 340.351 106.301 339.382 102.864C338.874 101.068 338.994 99.7294 338.959 97.8657L334.259 97.5568C334.365 101.749 332.503 104.575 330.564 108.1C329.622 109.815 329.828 109.478 330.24 111.381Z" fill="url(#paint16_linear_4_14)"/>
<path fill-rule="evenodd" clip-rule="evenodd" d="M346.974 64.8827L346.938 64.6448C346.933 64.3037 346.883 63.9648 346.789 63.6366C345.599 55.6704 343.169 42.2443 341.279 35.2366C337.978 23.0069 327.508 27.2349 327.615 34.5266C327.718 41.4314 334.145 56.3804 335.626 62.8592C335.097 67.5771 333.139 91.1456 333.811 95.2636C333.939 96.0481 334.283 96.5593 334.244 97.422C334.216 98.0751 334.038 98.3379 333.846 99.1224C335.7 99.3423 337.542 99.6551 339.364 100.06C339.406 99.4413 339.499 98.8275 339.641 98.2243C339.957 97.3368 340.771 96.8823 341.137 96.1333C342.942 92.4413 345.926 73.0583 346.747 66.7606C346.898 66.1461 346.975 65.5155 346.974 64.8827Z" fill="url(#paint17_linear_4_14)"/>
<g style="mix-blend-mode:multiply" opacity="0.35">
<path fill-rule="evenodd" clip-rule="evenodd" d="M345.606 72.3377C346.317 70.6443 347.102 65.369 347.091 63.0296C347.073 58.1731 345.24 54.1546 344.672 51.0732L327.689 34.2C327.8 37.363 331.491 45.7872 333.019 52.0068C335.367 61.6983 340.508 70.055 345.606 72.3377Z" fill="#3469C0"/>
</g>
<path fill-rule="evenodd" clip-rule="evenodd" d="M398.135 73.4878C395.74 81.3972 384.499 87.6275 373.236 85.1496C370.547 82.164 369.747 83.0906 367.289 80.6837C365.051 78.4898 362.29 75.49 358.407 71.5744C356.275 68.2054 347.784 66.8245 344.043 65.3583C339.819 63.704 336.067 60.2534 334.322 53.5439C333.473 50.2921 329.785 40.3415 328.46 37.0223C324.623 27.4373 332.944 23.8482 338.568 27.3982C342.171 28.8999 350.115 30.7849 354.04 31.5162C356.31 31.9774 358.602 32.3187 360.908 32.5386C365.58 32.9895 370.657 36.3975 374.284 39.2836C384.051 47.0439 397.278 62.6426 398.135 73.4878Z" fill="url(#paint18_linear_4_14)"/>
<path fill-rule="evenodd" clip-rule="evenodd" d="M341.677 23.5287C342.808 27.842 345.127 31.7519 348.37 34.8142C347.18 39.0742 339.048 42.1414 336.461 39.2659C336.259 38.6943 335.989 37.4199 335.708 37.0081C335.282 35.7585 334.855 34.6651 334.489 33.7882L341.677 23.5287Z" fill="url(#paint19_linear_4_14)"/>
<path fill-rule="evenodd" clip-rule="evenodd" d="M318.058 17.838C318.456 21.0721 319.479 23.802 322.282 26.5852C322.851 27.1131 323.259 27.7913 323.458 28.5413C324.524 32.4073 325.348 33.1954 327.828 34.9633C330.24 36.6815 331.146 37.8743 332.521 38.0163C333.896 38.1583 335.239 37.3986 336.276 36.6602C338.408 35.1443 340.771 30.9801 341.886 28.2573C342.711 26.2267 342.199 25.7155 341.677 23.7878C342.288 20.2378 339.833 20.0213 339.016 20.4579C336.674 21.7146 338.248 24.3097 337.47 25.8007C329.231 27.6183 320.712 20.2414 318.058 17.838Z" fill="#FFA698"/>
<path fill-rule="evenodd" clip-rule="evenodd" d="M318.058 17.838C322.634 25.4492 332.706 27.3698 337.47 25.8007C329.231 27.6183 320.712 20.2414 318.058 17.838Z" fill="#FF9080"/>
<g style="mix-blend-mode:multiply" opacity="0.35">
<path fill-rule="evenodd" clip-rule="evenodd" d="M371.311 83.19C371.243 83.208 371.174 83.2222 371.105 83.2326C369.858 82.409 368.973 82.3061 367.289 80.6766C365.051 78.4827 362.29 75.483 358.407 71.5673C357.313 69.8491 354.573 68.6492 351.657 67.6907C352.118 59.8168 351.912 41.8254 354.499 39.4824C358.052 36.2519 362.969 34.1041 367.065 38.3109C374.81 46.27 367.108 75.6285 371.311 83.19Z" fill="#3469C0"/>
</g>
<path fill-rule="evenodd" clip-rule="evenodd" d="M360.407 93.7761L355.511 75.3658L358.894 72.3518L389.8 89.683L386.925 92.9064L373.503 101.881L360.407 93.7761Z" fill="#4A9FF8"/>
<path fill-rule="evenodd" clip-rule="evenodd" d="M355.526 75.4155L353.273 68.2303L391.842 89.619L386.869 92.9418L355.526 75.4155Z" fill="#D0E7FF"/>
<path style="mix-blend-mode:multiply" opacity="0.5" fill-rule="evenodd" clip-rule="evenodd" d="M292.367 118.978C294.371 104.227 305.569 97.8728 317.383 104.82L439.397 176.005C451.199 182.945 459.161 200.56 457.161 215.31L438.566 355.922C436.565 370.672 425.349 377.016 413.547 370.08L291.536 298.895C279.719 291.948 271.772 274.34 273.772 259.589L292.367 118.978Z" fill="url(#paint20_linear_4_14)"/>
<path fill-rule="evenodd" clip-rule="evenodd" d="M296.695 118.168C296.911 116.574 297.227 109.449 299.142 108.001C301.725 106.045 306.436 103.201 307.829 102.829C311.464 101.859 315.645 102.495 319.941 105.012L433.954 171.042C444.922 177.492 452.319 193.858 450.46 207.564L433.19 338.215C432.54 343 430.845 346.834 428.451 349.522C426.831 351.343 423.04 353.885 419.881 355.518C416.613 357.207 412.015 352.585 409.933 351.368L295.92 285.338C284.942 278.884 277.556 262.522 279.414 248.815L296.695 118.168Z" fill="#D0E7FF"/>
<path fill-rule="evenodd" clip-rule="evenodd" d="M292.683 120.969C294.542 107.263 304.948 101.359 315.926 107.813L429.303 173.96C440.267 180.407 447.668 196.776 445.81 210.482L428.529 341.122C426.671 354.829 416.25 360.725 405.283 354.278L291.909 288.149C280.927 281.695 273.541 265.333 275.399 251.627L292.683 120.969Z" fill="white"/>
<path fill-rule="evenodd" clip-rule="evenodd" d="M292.683 120.969C294.541 107.263 304.948 101.359 315.926 107.813L429.303 173.96C440.267 180.407 447.668 196.776 445.81 210.482L444.033 223.465L290.889 134.115L292.683 120.969Z" fill="url(#paint21_linear_4_14)"/>
<path fill-rule="evenodd" clip-rule="evenodd" d="M310.909 121.48C313.396 122.073 315.315 125.062 315.173 128.158C315.03 131.253 312.888 133.284 310.391 132.691C307.893 132.098 305.985 129.113 306.127 126.014C306.269 122.915 308.412 120.887 310.909 121.48Z" fill="white"/>
<path fill-rule="evenodd" clip-rule="evenodd" d="M324.239 129.784C326.726 130.377 328.641 133.366 328.503 136.461C328.364 139.557 326.215 141.587 323.717 140.995C321.22 140.402 319.312 137.413 319.454 134.317C319.596 131.221 321.742 129.191 324.239 129.784Z" fill="white"/>
<path fill-rule="evenodd" clip-rule="evenodd" d="M337.566 138.087C340.053 138.677 341.972 141.666 341.83 144.765C341.687 147.864 339.545 149.891 337.047 149.298C334.55 148.705 332.642 145.716 332.784 142.621C332.926 139.525 335.069 137.505 337.566 138.087Z" fill="white"/>
<path opacity="0.2" fill-rule="evenodd" clip-rule="evenodd" d="M316.732 160.072C328.307 162.813 337.147 176.672 336.479 191.021C335.811 205.37 325.895 214.778 314.306 212.055C302.716 209.332 293.891 195.455 294.559 181.106C295.227 166.757 305.157 157.328 316.732 160.072Z" fill="url(#paint22_linear_4_14)"/>
<path fill-rule="evenodd" clip-rule="evenodd" d="M316.175 172.046C322.413 173.523 327.188 180.996 326.833 188.731C326.478 196.467 321.12 201.54 314.878 200.063C308.636 198.586 303.864 191.113 304.219 183.378C304.575 175.643 309.932 170.566 316.175 172.046Z" fill="url(#paint23_linear_4_14)"/>
<path opacity="0.2" fill-rule="evenodd" clip-rule="evenodd" d="M343.439 187.915C343.851 184.866 346.16 183.591 348.598 185.075L422.702 227.757C425.136 229.233 426.777 232.911 426.362 235.961L425.562 241.996C425.147 245.045 422.834 246.32 420.404 244.836L346.295 202.147C343.858 200.667 342.224 196.992 342.636 193.946L343.439 187.915Z" fill="#955CF1"/>
<path opacity="0.2" fill-rule="evenodd" clip-rule="evenodd" d="M340.49 210.095C340.735 208.296 342.1 207.539 343.539 208.416L387.298 233.621C388.719 234.491 389.704 236.664 389.458 238.464L388.986 242.014C388.741 243.813 387.377 244.566 385.938 243.693L342.178 218.488C340.757 217.614 339.773 215.445 340.018 213.645L340.49 210.095Z" fill="#955CF1"/>
<path opacity="0.2" fill-rule="evenodd" clip-rule="evenodd" d="M291.028 215.75C291.326 213.532 293.01 212.602 294.783 213.677L422.766 287.045C424.543 288.11 425.733 290.798 425.431 293.02L425.033 295.927C424.731 298.146 423.047 299.076 421.274 297.997L293.294 224.633C291.518 223.568 290.328 220.877 290.626 218.658L291.028 215.75Z" fill="#955CF1"/>
<path opacity="0.2" fill-rule="evenodd" clip-rule="evenodd" d="M288.352 237.26C288.651 235.041 290.335 234.111 292.108 235.19L420.087 308.558C421.864 309.623 423.054 312.311 422.756 314.529L422.358 317.437C422.056 319.659 420.372 320.586 418.599 319.51L290.619 246.153C288.843 245.088 287.649 242.397 287.951 240.178L288.352 237.26Z" fill="#955CF1"/>
<path opacity="0.2" fill-rule="evenodd" clip-rule="evenodd" d="M285.549 257.768C285.848 255.55 287.532 254.619 289.305 255.695L417.288 329.063C419.064 330.128 420.251 332.815 419.952 335.038L419.555 337.945C419.253 340.164 417.568 341.094 415.796 340.015L287.816 266.65C286.04 265.585 284.846 262.895 285.148 260.676L285.549 257.768Z" fill="#955CF1"/>
<path fill-rule="evenodd" clip-rule="evenodd" d="M450.908 106.265C451.313 103.425 449.419 101.231 450.656 99.3461C451.988 97.3119 456.529 95.8564 458.493 95.1464C461.275 94.1453 464.554 94.4719 467.894 96.3783L604.02 174.148C611.968 178.692 617.265 190.503 615.84 200.5L600.563 307.216C599.853 312.115 597.682 315.68 594.701 317.511C592.878 318.626 587.89 320.76 585.631 320.486C584.043 320.291 585.251 318.069 583.577 317.11L447.448 239.34C439.489 234.793 434.199 222.986 435.627 212.985L450.908 106.265Z" fill="#D0E7FF"/>
<path fill-rule="evenodd" clip-rule="evenodd" d="M446.829 107.894C448.251 97.8977 455.857 93.4602 463.815 98.0077L599.942 175.778C607.889 180.318 613.187 192.129 611.762 202.129L596.485 308.846C595.064 318.843 587.446 323.277 579.499 318.733L443.369 240.966C435.411 236.415 430.121 224.611 431.545 214.611L446.829 107.894Z" fill="url(#paint24_linear_4_14)"/>
<path fill-rule="evenodd" clip-rule="evenodd" d="M436.26 219.51C436.381 218.64 437.041 218.271 437.727 218.686L588.704 305.186C589.067 305.446 589.353 305.798 589.532 306.207C589.712 306.615 589.778 307.065 589.724 307.507L589.326 310.142C589.201 311.008 588.541 311.377 587.855 310.965L436.882 224.459C436.518 224.199 436.231 223.847 436.051 223.438C435.871 223.03 435.804 222.58 435.858 222.137L436.26 219.51Z" fill="#6D6AFD"/>
<path fill-rule="evenodd" clip-rule="evenodd" d="M436.331 219.585C436.452 218.747 437.084 218.392 437.752 218.789L498.651 253.668C499 253.92 499.276 254.26 499.449 254.654C499.622 255.048 499.686 255.481 499.635 255.908L499.251 258.45C499.13 259.284 498.495 259.643 497.83 259.245L436.935 224.363C436.585 224.112 436.309 223.773 436.135 223.379C435.961 222.986 435.896 222.553 435.947 222.126L436.331 219.585Z" fill="#B269EB"/>
<path fill-rule="evenodd" clip-rule="evenodd" d="M496.015 168.237C496.37 165.859 498.164 164.805 500.054 165.887L541.977 189.836C543.867 190.918 545.129 193.741 544.791 196.108L539.135 235.95C538.78 238.329 536.982 239.383 535.092 238.304L493.169 214.352C491.275 213.269 490.017 210.447 490.355 208.083L496.015 168.237Z" fill="url(#paint25_linear_4_14)"/>
<path fill-rule="evenodd" clip-rule="evenodd" d="M519.921 185.576C512.667 181.429 505.739 185.469 504.438 194.589C503.138 203.709 507.959 214.469 515.214 218.615C522.469 222.762 529.397 218.722 530.697 209.595C531.998 200.468 527.169 189.718 519.921 185.576Z" fill="url(#paint26_linear_4_14)"/>
<path fill-rule="evenodd" clip-rule="evenodd" d="M513.207 190.006L510.919 206.51L524.913 206.89L513.207 190.006Z" fill="white"/>
<path fill-rule="evenodd" clip-rule="evenodd" d="M350.204 105.608C349.013 107.593 349.642 111.892 349.255 113.937C348.835 115.979 348.225 117.978 347.432 119.908C347.184 120.437 339.289 127.441 338.831 127.089C337.79 126.287 337.115 120.756 338.475 119.148C339.836 117.54 340.994 115.953 341.225 114.65C341.456 113.347 341.385 108.97 341.936 108.285C343.233 106.758 344.586 106.272 345.162 104.38L350.204 105.608Z" fill="url(#paint27_linear_4_14)"/>
<path fill-rule="evenodd" clip-rule="evenodd" d="M365.562 78.8448C365.687 78.3881 365.785 77.9247 365.857 77.4567C367.914 68.9651 370 54.4314 369.733 46.0108C369.527 39.5818 366.397 34.1361 358.848 36.2341C356.528 36.8767 353.842 38.641 353.497 41.694C353.088 45.347 353.632 51.4175 353.977 57.6158C354.254 62.5858 354.229 71.5105 354.421 75.135C354.389 75.2451 354.357 75.3552 354.325 75.4723C351.909 80.279 346.281 95.9807 345.087 101.075C344.892 101.927 345.087 102.85 345.066 103.432C345.011 104.101 344.804 104.748 344.459 105.324C345.925 106.641 347.707 107.558 349.631 107.987C349.939 107.339 350.295 106.716 350.697 106.123C351.024 105.622 352.538 105.15 353.124 104.447C356.254 100.702 364.493 83.5805 365.52 79.0258C365.541 78.9655 365.552 78.9052 365.562 78.8448Z" fill="url(#paint28_linear_4_14)"/>
<path opacity="0.3" fill-rule="evenodd" clip-rule="evenodd" d="M244.958 516.393L313.492 477.389C320.953 473.978 331.658 471.262 339.271 475.22C346.207 478.827 357.632 486.225 362.685 489.09C366.522 491.277 379.841 499.25 371.545 503.759C347.141 517.018 322.985 531.931 298.201 545.404C293.515 547.952 286.658 548.872 279.46 548.275C272.262 547.679 264.943 545.595 259.159 542.241L247.008 535.172C241.629 532.045 238.78 528.346 238.482 524.927C238.222 521.58 240.372 518.484 244.958 516.393Z" fill="#955CF1"/>
<path fill-rule="evenodd" clip-rule="evenodd" d="M270.212 514.327C271.551 514.295 276.078 510.067 280.359 512.197C285.503 514.771 295.281 512.491 300.201 513.674C301.079 513.883 302.798 513.241 303.136 513.84C304.202 515.729 305.225 518.551 302.613 520.397C300.691 521.757 296.574 523.553 293.877 524.512C291.014 525.523 286.111 527.121 282.824 527.636C279.186 528.204 277.527 528.438 276.163 529.489C274.216 530.469 272.205 530.891 271.082 530.71C268.681 530.33 265.884 528.935 264.602 526.191C264.193 525.318 264.183 521.501 264.652 519.023C265.025 517.071 266.091 514.845 266.947 512.768L270.212 514.327Z" fill="white"/>
<path fill-rule="evenodd" clip-rule="evenodd" d="M280.735 505.189C279.105 509.094 279.606 515.129 275.761 517.234C273.182 518.633 269.142 518.654 267.384 514.643C266.403 512.41 267.707 508.608 267.419 503.695L280.735 505.189Z" fill="#FFA495"/>
<path fill-rule="evenodd" clip-rule="evenodd" d="M281.808 511.238C284.761 512.094 292.921 511.522 298.08 511.948C300.297 512.129 302.287 512.112 303.324 514.124C304.276 515.974 303.775 517.561 301.619 519.094C299.693 520.451 296.435 522.002 293.735 522.957C290.871 523.972 285.969 525.57 282.682 526.084C279.044 526.652 277.385 526.887 276.021 527.938C274.074 528.917 272.063 529.336 270.94 529.159C268.538 528.775 265.742 527.089 264.46 524.356C264.051 523.479 264.04 519.95 264.513 517.472C264.61 516.979 264.736 516.492 264.89 516.013C265.295 512.133 266.577 510.567 267.785 511.231C269.441 512.14 270.066 513.777 270.695 515.136C270.898 515.63 271.204 516.075 271.591 516.442C271.979 516.809 272.44 517.09 272.944 517.266C274.919 517.891 276.728 516.787 277.897 515.094C278.542 513.858 278.999 512.534 279.254 511.164C279.254 511.029 279.254 510.897 279.254 510.766C279.645 507.376 281.293 507.67 281.03 508.388C280.817 509.019 280.909 510.546 281.808 511.238Z" fill="#193161"/>
<path fill-rule="evenodd" clip-rule="evenodd" d="M302.29 513.542C302.251 514.852 304.262 514.962 303.679 517.28C304.649 516.333 303.299 513.617 302.702 513.201C302.446 513.035 302.248 512.963 302.29 513.542Z" fill="white"/>
<path fill-rule="evenodd" clip-rule="evenodd" d="M303.832 500.883C305.083 500.393 307.868 494.848 312.625 495.391C314.547 495.611 317.635 495.111 320.768 494.22C325.767 492.8 332.731 488.337 333.914 489.068C336.504 490.659 336.71 493.559 334.891 496.193C333.555 498.128 331.029 500.705 328.823 502.53C326.481 504.468 323.163 507.429 320.253 509.041C317.507 510.564 316.594 510.429 314.636 513.074C313.148 514.66 311.403 515.608 310.288 515.825C307.445 516.382 303.281 514.55 301.786 512.63C300.837 509.555 299.189 506.648 300.244 502.04L303.832 500.883Z" fill="white"/>
<path fill-rule="evenodd" clip-rule="evenodd" d="M310.433 487.801C310.359 492.033 313.045 497.464 310.231 500.833C308.348 503.084 304.599 504.579 301.487 501.504C299.753 499.786 299.562 495.76 297.49 491.309L310.433 487.801Z" fill="#FFA495"/>
<path fill-rule="evenodd" clip-rule="evenodd" d="M319.5 492.959L320.356 492.725C325.352 491.305 332.031 487.865 333.217 488.596C335.807 490.187 336.301 492.065 334.482 494.699C333.146 496.634 330.617 499.211 328.411 501.036C326.073 502.97 322.751 505.935 319.845 507.546C317.095 509.069 316.185 508.934 314.228 511.575C312.736 513.166 310.991 514.11 309.875 514.33C307.033 514.884 302.745 513.034 301.253 511.135C300.542 508.849 299.579 506.673 299.501 503.801C299.082 500.038 299.341 498.121 300.979 498.174C304.028 498.263 305.282 499.868 306.539 500.659C309.25 502.349 311.066 500.169 311.513 497.464C311.565 496.269 311.482 495.073 311.265 493.897C311.222 493.769 311.176 493.648 311.123 493.542C310.238 490.244 311.879 489.913 311.911 490.67C311.979 492.384 313.048 493.343 314.423 493.549C316.057 493.765 318.15 493.073 319.5 492.959Z" fill="#193161"/>
<path fill-rule="evenodd" clip-rule="evenodd" d="M332.898 489.015C333.427 490.215 335.296 489.463 335.765 491.791C336.227 490.52 333.839 488.65 333.122 488.532C332.83 488.486 332.61 488.511 332.898 489.015Z" fill="white"/>
<path fill-rule="evenodd" clip-rule="evenodd" d="M307.555 373.58C308.65 385.835 314.796 424.97 313.087 435.705C310.515 451.857 311.247 471.379 311.279 488.525C310.845 495.732 300.929 499.495 298.045 494.915C295.728 479.594 292.431 466.16 291.092 457.64C289.589 448.109 290.086 436.521 292.513 430.256C291.522 423.411 286.85 405.761 282.949 393.513C281.527 389.097 273.562 374.83 281.819 360.647L307.555 373.58Z" fill="url(#paint29_linear_4_14)"/>
<path fill-rule="evenodd" clip-rule="evenodd" d="M311.439 483.942C311.439 485.213 311.4 487.137 311.403 488.401C310.97 495.604 300.929 499.513 298.045 494.933C297.874 493.804 297.625 492.686 297.444 491.578C301.327 495.757 308.93 490.329 311.439 483.942Z" fill="url(#paint30_linear_4_14)"/>
<g style="mix-blend-mode:multiply" opacity="0.3">
<path fill-rule="evenodd" clip-rule="evenodd" d="M313.35 428.431C310.117 444.633 300.976 466.274 295.984 482.565C293.383 468.606 286.882 444.836 292.506 430.288C291.941 426.383 290.182 418.984 288.05 411.068C292.378 402.875 288.242 396.332 290.285 384.798C301.74 382.806 284.451 368.823 308.692 383.548C310.86 400.915 312.895 411.856 313.35 428.431Z" fill="#1E2353"/>
</g>
<path fill-rule="evenodd" clip-rule="evenodd" d="M306.763 443.795C300.155 458.744 287.965 488.067 281.478 506.41C278.124 511.284 266.162 510.777 266.201 506.233C268.84 490.893 271.946 467.24 277.456 453.785C279.14 449.671 285.364 439.763 287.606 436.823C289.351 430.053 291.536 411.771 293.22 401.877C291.71 393.691 285.102 380.005 297.796 368.106C302.919 371.748 318.757 374.027 325.941 369.97C327.085 402.306 319.145 415.793 306.763 443.795Z" fill="url(#paint31_linear_4_14)"/>
<path fill-rule="evenodd" clip-rule="evenodd" d="M282.824 503.215C282.533 504.014 281.961 505.636 281.687 506.41C278.234 511.423 265.92 510.901 265.945 506.222C266.078 505.467 266.209 504.691 266.339 503.893C269.274 506.875 278.152 506.914 282.824 503.215Z" fill="url(#paint32_linear_4_14)"/>
<path fill-rule="evenodd" clip-rule="evenodd" d="M347.276 194.383C346.807 195.374 346.356 196.378 345.855 197.358L343.844 201.405C343.414 199.424 341.829 198.664 340.614 199.665C340.184 200.019 339.846 200.472 339.63 200.986C339.435 200.443 337.904 199.211 335.836 202.165C334.543 202.026 333.864 202.573 333.32 203.613C332.982 204.302 332.691 205.014 332.45 205.743C332.086 206.658 331.883 207.628 331.85 208.611C331.85 210.56 331.946 212.673 331.889 215.001C331.828 217.526 328.965 220.724 327.405 222.567L336.788 225.538C338.209 223.738 338.998 222.439 340.44 220.976C341.883 219.514 343.776 219.308 345.18 218.157C345.965 217.511 346.42 216.659 347.752 214.771C348.857 213.205 349.464 211.512 350.52 209.801C351.546 208.026 351.482 208.42 351.586 206.428C351.664 204.895 352.161 203.379 352.296 202.445C350.367 201.487 348.85 203.865 348.864 206.18C347.759 206.801 347.034 208.31 346.786 209.02C345.251 207.018 346.164 206.18 346.786 203.606C347.705 201.971 348.445 200.242 348.992 198.448C349.29 197.656 349.589 196.833 349.912 195.963C350.349 194.522 349.791 193.499 349.354 193.215C348.988 192.928 348.061 193.034 347.276 194.383Z" fill="url(#paint33_linear_4_14)"/>
<path fill-rule="evenodd" clip-rule="evenodd" d="M351.184 202.225C349.816 202.42 348.846 204.309 348.86 206.158C347.827 206.741 347.127 208.111 346.835 208.839C347.397 208.129 348.828 206.57 349.301 206.386C349.443 204.611 350.079 203.144 351.184 202.225ZM344.014 201.05L343.84 201.405C343.751 200.962 343.578 200.54 343.329 200.162C343.272 201.511 342.526 202.481 341.993 203.134C343.204 202.591 343.688 201.941 344.014 201.057V201.05ZM339.613 200.947C339.504 200.732 339.332 200.556 339.119 200.443C338.931 201.395 338.57 202.305 338.053 203.127C338.78 202.575 339.32 201.814 339.602 200.947H339.613ZM335.879 202.115L335.836 202.175C335.636 202.16 335.435 202.16 335.236 202.175C335.144 203.256 334.765 204.293 334.138 205.179C335.133 204.181 335.637 203.535 335.879 202.115Z" fill="#FF8978"/>
<path fill-rule="evenodd" clip-rule="evenodd" d="M311.847 248.549C316.569 240.327 320.264 230.029 326.865 221.679C327.412 220.969 328.705 220.451 329.182 219.716C329.871 218.651 330.557 217.607 331.239 216.585C334.333 216.642 338.131 218.232 340.735 220.845C340.366 221.945 340.002 223.041 339.645 224.132C339.225 225.403 340.028 228.115 339.666 229.386C336.651 240.173 332.783 250.704 328.098 260.878C321.55 269.313 292.474 323.458 277.268 303.812C275.9 296.822 277.751 291.011 281.272 285.352C283.219 282.224 286.178 279.491 288.171 277.428C292.953 272.49 304.667 255.944 311.847 248.549Z" fill="url(#paint34_linear_4_14)"/>
<path fill-rule="evenodd" clip-rule="evenodd" d="M279.492 329.684C280.558 339.269 277.673 348.698 280.611 357.452C280.739 358.358 280.824 361.904 280.966 362.87C282.899 374.208 306.902 385.682 326.922 374.805C327.032 373.385 326.922 371.929 327.014 369.324C326.659 366.892 327.693 364.286 327.689 362.802C327.661 356.632 325.739 353.476 326.659 346.611C328.535 332.641 336.28 319.215 331.988 308.225C331.068 305.864 329.459 304.721 327.632 303.255C322.9 299.456 298.432 287.006 291.017 286.129C269.501 283.343 278.337 319.283 279.492 329.684Z" fill="url(#paint35_linear_4_14)"/>
<g style="mix-blend-mode:multiply" opacity="0.35">
<path fill-rule="evenodd" clip-rule="evenodd" d="M328.84 336.483C331.619 326.216 335.235 316.528 332.009 308.225C331.089 305.864 329.48 304.721 327.654 303.255C322.921 299.456 323.55 309.669 316.132 308.789C314.704 322.439 321.458 334.853 328.84 336.483Z" fill="#6266D7"/>
</g>
<path fill-rule="evenodd" clip-rule="evenodd" d="M313.741 281.841C313.481 285.773 313.663 289.721 314.284 293.613C307.271 293.385 297.526 291.554 296.464 286.335C296.513 285.71 296.556 285.075 296.588 284.454C296.499 284.372 296.404 284.297 296.304 284.23C293.788 282.558 289.628 281.319 286.953 278.262C282.689 273.381 280.408 266.821 283.755 260.218C289.88 248.148 304.692 247.956 312.945 257.704C314.554 259.607 313.375 261.581 314.292 263.42C314.473 263.775 315.13 263.938 315.894 264.567C316.96 265.44 320.029 272.977 319.951 276.91C319.919 278.497 316.274 280.726 314.657 281.603C314.362 281.716 314.054 281.796 313.741 281.841Z" fill="#FFA698"/>
<path fill-rule="evenodd" clip-rule="evenodd" d="M313.741 281.841C313.481 285.773 313.663 289.721 314.284 293.613C307.271 293.385 297.526 291.554 296.464 286.335C296.513 285.71 296.556 285.075 296.588 284.454C296.492 284.368 296.385 284.308 296.304 284.23C290.975 279.26 298.101 273.53 307.111 278.451C308.579 280.787 310.849 281.99 313.741 281.841Z" fill="url(#paint36_linear_4_14)"/>
<path fill-rule="evenodd" clip-rule="evenodd" d="M319.958 276.91C319.926 277.602 317.056 278.646 315.855 278.809C316.672 271.354 309.577 270.222 310.646 262.951C311.289 258.581 306.792 257.002 308.557 253.803C310.204 254.885 311.684 256.2 312.952 257.708C314.562 259.611 313.382 261.585 314.299 263.423C314.48 263.778 315.137 263.942 315.901 264.57C316.96 265.44 320.14 272.98 319.958 276.91Z" fill="url(#paint37_linear_4_14)"/>
<path fill-rule="evenodd" clip-rule="evenodd" d="M310.291 273.885C310.153 272.217 309.478 271.897 308.92 272.341C308.305 272.827 307.779 274.272 307.946 275.987C308.22 278.752 310.789 281.23 312.565 278.994C310.632 280.02 309.723 277.542 309.637 275.799C309.57 274.606 309.872 273.608 310.291 273.885Z" fill="#FFB49C"/>
<path fill-rule="evenodd" clip-rule="evenodd" d="M309.676 274.95C310.703 275.731 311.179 276.257 311.162 276.693C311.162 276.999 310.899 277.453 309.993 277.134C309.681 276.451 309.571 275.693 309.676 274.95Z" fill="#FF9D8E"/>
<path fill-rule="evenodd" clip-rule="evenodd" d="M296.378 286.151C294.3 286.79 292.364 288.92 292.744 290.29C294.808 298.725 310.28 300.606 319.905 298.576C320.022 298.551 316.302 293.638 314.462 293.041C308.405 293.634 298.244 291.131 296.378 286.151Z" fill="#726CDE"/>
<path fill-rule="evenodd" clip-rule="evenodd" d="M295.632 285.625C293.067 282.892 288.726 281.585 285.94 278.401C283.155 275.217 280.185 270.445 282.032 265.497C278.795 255.33 289.848 247.264 299.167 245.432C305.832 244.122 309.826 251.265 306.919 256.082C309.406 258.872 309.335 262.564 309.161 263.512C308.628 266.416 308.703 266.782 309.634 268.954C310.366 270.673 312.195 274.819 308.884 272.192C306.752 270.495 305.25 274.244 305.974 276.839C306.485 278.456 306.644 280.164 306.44 281.848C305.804 287.315 297.06 287.148 295.632 285.625Z" fill="#562E65"/>
<path fill-rule="evenodd" clip-rule="evenodd" d="M285.109 260.892C282.902 251.045 295.86 246.06 300.929 245.943C306.056 245.826 310.078 254.257 303.996 257.097C299.849 259.036 291.635 255.248 285.109 260.892Z" fill="url(#paint38_linear_4_14)"/>
<path fill-rule="evenodd" clip-rule="evenodd" d="M387.846 274.837C387.605 275.475 387.463 276.147 387.426 276.828C387.006 277.801 386.683 278.813 386.463 279.849C386.147 281.443 386.265 282.689 386.218 284.819C386.19 286.048 386.389 286.68 386.652 287.876C385.408 290.308 383.454 291.802 381.621 293.808L387.544 298.32C390.031 296.673 391.995 294.944 394.148 293.513C395.896 292.803 396.507 292.431 397.033 291.884C398.405 290.464 402.444 286.204 402.675 284.539C402.931 282.689 402.437 278.405 402.018 276.051C400.952 270.051 398.66 263.75 398.27 266.53C397.698 267.197 398.163 272.618 397.804 273.42C396.383 275.036 395.733 275.699 393.974 277.62C392.883 278.241 392.166 278.887 391.64 279.04C391.036 279.203 390.702 278.781 390.681 278.252C390.656 277.655 391.036 276.601 391.352 275.057C391.352 272.487 390.713 271.031 389.338 271.152C388.627 271.219 388.222 271.596 388.045 272.352C387.906 272.955 387.941 273.786 387.846 274.837Z" fill="url(#paint39_linear_4_14)"/>
<path fill-rule="evenodd" clip-rule="evenodd" d="M328.137 300.01C336.308 301.27 352.03 310.234 362.887 315.094C368.945 306.471 376.892 296.133 381.792 292.658C382.356 292.257 383.792 291.447 384.232 290.908C384.943 290.034 385.653 289.133 386.307 288.22C389.37 288.646 393.807 292.48 393.768 294.273C393.274 295.175 392.77 296.119 392.262 297.092C391.906 297.756 392.041 299.222 391.835 299.967C390.169 306.002 381.003 319.954 376.729 326.177C374.242 329.769 373.389 331.882 371.719 332.954C369.033 334.679 365.434 333.738 358.496 331.995C352.658 330.529 333.807 327.103 325.135 322.527C319.02 319.304 314.327 313.496 316.757 306.808C318.299 302.52 322.889 299.2 328.137 300.01Z" fill="url(#paint40_linear_4_14)"/>
<path opacity="0.5" fill-rule="evenodd" clip-rule="evenodd" d="M552.565 51.0696C547.236 48.1195 541.587 52.0991 541.643 59.799C541.668 63.7857 543.363 67.8895 546.031 70.449C546.678 71.0786 547.404 71.6216 548.191 72.0643C553.521 75.0072 559.131 71.0312 559.091 63.3668C559.091 59.373 557.397 55.2515 554.739 52.6848C554.087 52.0507 553.357 51.503 552.565 51.0554V51.0696ZM547.431 75.6924C546.375 75.0996 545.4 74.3716 544.532 73.5269C540.936 70.0763 538.684 64.5525 538.631 59.1849C538.567 48.8579 546.148 43.4868 553.307 47.4521C554.38 48.0555 555.368 48.798 556.246 49.6602C559.834 53.1002 562.083 58.6275 562.108 63.9951C562.15 74.2901 554.579 79.6542 547.431 75.6924ZM571.818 66.9168C573.065 67.609 573.807 69.4018 573.47 70.9815L572.169 77.0343C571.835 78.575 570.556 79.2672 569.327 78.575L568.688 78.22C568.478 78.0902 568.244 78.0054 568 77.971C567.756 77.9366 567.507 77.9533 567.27 78.0201C567.033 78.0868 566.812 78.2022 566.622 78.3589C566.431 78.5155 566.276 78.71 566.165 78.93C565.81 79.5232 565.424 80.0968 565.007 80.6482C564.357 81.4966 564.254 82.8563 564.748 84.0739L565.103 84.894C565.742 86.456 565.359 88.2381 564.254 88.838L559.869 91.2023C559.593 91.3451 559.284 91.4142 558.973 91.403C558.662 91.3918 558.359 91.3007 558.093 91.1384C557.44 90.7455 556.94 90.1438 556.672 89.4309L556.317 88.6286C556.046 87.9223 555.545 87.3272 554.896 86.9388C554.571 86.7554 554.203 86.6634 553.83 86.6725C553.211 86.6725 552.583 86.6512 551.957 86.5909C550.955 86.495 550.12 87.205 549.865 88.3872L549.694 89.1788C549.364 90.7195 548.081 91.4118 546.834 90.7231L541.945 88.0144C540.698 87.3222 539.956 85.5117 540.286 83.9674L540.457 83.1793C540.573 82.5639 540.548 81.93 540.382 81.3259C540.217 80.7218 539.915 80.1634 539.501 79.6932C538.975 79.1146 538.485 78.5182 537.998 77.9005C537.747 77.5629 537.429 77.2802 537.064 77.0698C536.802 76.9074 536.501 76.8161 536.193 76.8049C535.885 76.7937 535.579 76.863 535.305 77.0059L534.733 77.3005C534.457 77.4431 534.148 77.5125 533.837 77.5019C533.526 77.4913 533.223 77.4012 532.957 77.2402C532.305 76.8448 531.804 76.2423 531.536 75.5291L528.995 69.3237C528.356 67.7617 528.74 65.9796 529.845 65.3832L530.424 65.0672C531.283 64.6022 531.724 63.4271 531.539 62.1172C531.422 61.2865 531.34 60.4522 531.287 59.6322C531.209 58.34 530.523 57.1188 529.571 56.5898L528.931 56.2348C527.684 55.5461 526.945 53.7498 527.276 52.1914L528.58 46.1386C528.914 44.5766 530.196 43.8879 531.443 44.5766L532.079 44.9316C532.289 45.0614 532.523 45.1462 532.767 45.1806C533.011 45.2151 533.26 45.1983 533.497 45.1316C533.734 45.0648 533.955 44.9494 534.145 44.7927C534.335 44.6361 534.491 44.4416 534.602 44.2216C534.956 43.6281 535.343 43.0545 535.76 42.5034C536.407 41.6692 536.513 40.3131 536.016 39.0954L535.661 38.2754C535.028 36.6956 535.405 34.9277 536.513 34.3136L540.901 31.9457C541.178 31.803 541.486 31.7339 541.798 31.7451C542.109 31.7563 542.412 31.8474 542.677 32.0096C543.33 32.4044 543.83 33.0071 544.098 33.7207L544.432 34.5372C544.702 35.2445 545.203 35.8401 545.854 36.227C546.178 36.4124 546.546 36.5057 546.919 36.4968C547.545 36.4796 548.172 36.4998 548.795 36.5572C549.797 36.6708 550.632 35.9643 550.884 34.7822L551.055 33.9941C551.389 32.4321 552.671 31.7434 553.919 32.4321L558.811 35.1407C560.058 35.833 560.797 37.6257 560.459 39.2019L560.292 39.9936C560.175 40.6038 560.199 41.2327 560.363 41.8321C560.527 42.4316 560.826 42.9855 561.237 43.4513C561.763 44.0299 562.271 44.637 562.754 45.2689C563.003 45.6074 563.321 45.8903 563.685 46.0996C563.948 46.2619 564.248 46.3532 564.556 46.3644C564.864 46.3756 565.17 46.3064 565.444 46.1635L566.023 45.8546C566.299 45.7107 566.608 45.6406 566.919 45.6512C567.23 45.6617 567.534 45.7526 567.799 45.915C568.451 46.3106 568.952 46.913 569.22 47.6261L571.757 53.8315C572.397 55.4112 572.017 57.1756 570.908 57.7897L570.329 58.1021C569.469 58.5672 569.029 59.7422 569.217 61.038C569.331 61.8687 569.415 62.697 569.469 63.523C569.547 64.8152 570.229 66.0364 571.185 66.5653L571.818 66.9168Z" fill="white"/>
<path fill-rule="evenodd" clip-rule="evenodd" d="M52.2074 36.795C51.6567 40.5438 48.7221 42.2408 45.6169 40.5226C42.5117 38.8043 40.4227 34.3207 40.9734 30.5825C41.524 26.8444 44.4445 25.2327 47.6065 26.9828C50.7081 28.701 52.7509 33.0817 52.2074 36.8057V36.795ZM35.1752 70.1012C35.7258 66.3559 38.6534 64.73 41.8118 66.4802C44.9703 68.2303 46.9599 72.5791 46.4305 76.3243C45.9011 80.0696 42.9416 81.77 39.84 80.0518C36.6816 78.3017 34.6458 73.85 35.1929 70.1118L35.1752 70.1012ZM15.791 38.0447C15.2474 41.7722 12.2631 43.3697 9.1579 41.6479C6.05274 39.9262 4.01342 35.549 4.53924 31.825C5.06505 28.1011 8.04586 26.39 11.1297 28.1011C14.2136 29.8122 16.3239 34.2994 15.7732 38.0411L15.791 38.0447ZM48.3064 22.201C43.0269 19.2758 37.957 22.0057 37.0226 28.3851V28.8608L18.619 31.754C17.3116 28.1614 14.8886 25.08 11.8438 23.3973C6.56434 20.4721 1.56909 23.2695 0.634696 29.6453C-0.292589 35.9573 3.18562 43.4904 8.45089 46.4191C11.4957 48.1054 14.3983 47.903 16.4838 46.1884L31.3381 67.57L31.2244 67.925C30.3007 74.2902 33.8535 81.8055 39.1366 84.7307C44.3592 87.624 49.4077 84.8834 50.3421 78.504C51.2659 72.1957 47.7344 64.5987 42.5259 61.7054C38.7706 59.6251 35.1716 60.4274 33.047 63.2781L18.985 42.8017C19.3607 41.9795 19.6007 41.1019 19.6956 40.2031C19.8669 39.2007 19.904 38.18 19.8057 37.1678L37.3069 34.1787C38.3372 38.7937 41.183 43.1424 44.9419 45.2227C50.161 48.116 55.2131 45.3506 56.151 38.9712C57.0889 32.5919 53.5255 25.0942 48.3064 22.201Z" fill="url(#paint41_linear_4_14)"/>
<path opacity="0.5" fill-rule="evenodd" clip-rule="evenodd" d="M20.1467 455.194L47.5389 409.982L61.3736 460.186L75.4285 443.089L92.9439 496.914L20.1467 455.194Z" fill="url(#paint42_linear_4_14)"/>
<path opacity="0.5" fill-rule="evenodd" clip-rule="evenodd" d="M69.9714 413.233C73.7338 414.164 77.1019 418.558 77.4891 423.046C77.8764 427.533 75.1443 430.416 71.3819 429.485C67.6195 428.555 64.255 424.16 63.8642 419.673C63.4734 415.186 66.209 412.3 69.9714 413.233Z" fill="#FF89DB"/>
<defs>
<linearGradient id="paint0_linear_4_14" x1="377.471" y1="87.9612" x2="377.461" y2="141.016" gradientUnits="userSpaceOnUse">
<stop stop-color="#324179"/>
<stop offset="1" stop-color="#0C124D"/>
</linearGradient>
<linearGradient id="paint1_linear_4_14" x1="386.311" y1="91.3479" x2="386.275" y2="181.72" gradientUnits="userSpaceOnUse">
<stop stop-color="#324179"/>
<stop offset="1" stop-color="#0C124D"/>
</linearGradient>
<linearGradient id="paint2_linear_4_14" x1="428.859" y1="180.811" x2="372.002" y2="526.17" gradientUnits="userSpaceOnUse">
<stop stop-color="#D1E8FF"/>
<stop offset="1" stop-color="#EAEFFF"/>
</linearGradient>
<linearGradient id="paint3_linear_4_14" x1="461.911" y1="115.456" x2="329.217" y2="540.863" gradientUnits="userSpaceOnUse">
<stop stop-color="#6D6AFE"/>
<stop offset="1" stop-color="#3FB0F7"/>
</linearGradient>
<linearGradient id="paint4_linear_4_14" x1="523.048" y1="393.35" x2="556.54" y2="322.855" gradientUnits="userSpaceOnUse">
<stop stop-color="#965CF2"/>
<stop offset="1" stop-color="#FF8ADC"/>
</linearGradient>
<linearGradient id="paint5_linear_4_14" x1="518.706" y1="268.695" x2="580.768" y2="177.968" gradientUnits="userSpaceOnUse">
<stop stop-color="#965CF2"/>
<stop offset="1" stop-color="#FF8ADC"/>
</linearGradient>
<linearGradient id="paint6_linear_4_14" x1="226.359" y1="361.137" x2="265.261" y2="276.226" gradientUnits="userSpaceOnUse">
<stop stop-color="#965CF2"/>
<stop offset="1" stop-color="#FF8ADC"/>
</linearGradient>
<linearGradient id="paint7_linear_4_14" x1="178.89" y1="268.681" x2="163.482" y2="312.89" gradientUnits="userSpaceOnUse">
<stop stop-color="#1C8EF4"/>
<stop offset="1" stop-color="#00CFDD"/>
</linearGradient>
<linearGradient id="paint8_linear_4_14" x1="231.326" y1="145.901" x2="262.826" y2="40.4591" gradientUnits="userSpaceOnUse">
<stop stop-color="#965CF2"/>
<stop offset="1" stop-color="#FF8ADC"/>
</linearGradient>
<linearGradient id="paint9_linear_4_14" x1="222.27" y1="39.7593" x2="186.364" y2="157.795" gradientUnits="userSpaceOnUse">
<stop stop-color="#6D6AFE"/>
<stop offset="1" stop-color="#3FB0F7"/>
</linearGradient>
<linearGradient id="paint10_linear_4_14" x1="525.801" y1="370.523" x2="536.336" y2="350.04" gradientUnits="userSpaceOnUse">
<stop stop-color="#965CF2"/>
<stop offset="1" stop-color="#FF8ADC"/>
</linearGradient>
<linearGradient id="paint11_linear_4_14" x1="398.824" y1="401.384" x2="373.471" y2="440.86" gradientUnits="userSpaceOnUse">
<stop stop-color="#FF66BC"/>
<stop offset="0.56" stop-color="#FF8ADC"/>
<stop offset="1" stop-color="#FFBBA8"/>
</linearGradient>
<linearGradient id="paint12_linear_4_14" x1="405.642" y1="415.498" x2="339.456" y2="418.343" gradientUnits="userSpaceOnUse">
<stop stop-color="#FF66BC"/>
<stop offset="0.56" stop-color="#FF8ADC"/>
<stop offset="1" stop-color="#FFBBA8"/>
</linearGradient>
<linearGradient id="paint13_linear_4_14" x1="496.391" y1="500.851" x2="508.585" y2="467.312" gradientUnits="userSpaceOnUse">
<stop stop-color="#965CF2"/>
<stop offset="1" stop-color="#FF8ADC"/>
</linearGradient>
<linearGradient id="paint14_linear_4_14" x1="499.564" y1="514.81" x2="495.112" y2="431.239" gradientUnits="userSpaceOnUse">
<stop stop-color="#965CF2"/>
<stop offset="1" stop-color="#FF8ADC"/>
</linearGradient>
<linearGradient id="paint15_linear_4_14" x1="334.646" y1="6.7656" x2="334.731" y2="66.6896" gradientUnits="userSpaceOnUse">
<stop stop-color="#5A2D68"/>
<stop offset="1" stop-color="#22043D"/>
</linearGradient>
<linearGradient id="paint16_linear_4_14" x1="336.326" y1="109.105" x2="333.754" y2="108.188" gradientUnits="userSpaceOnUse">
<stop stop-color="#FF8A78"/>
<stop offset="1" stop-color="#FFA799"/>
</linearGradient>
<linearGradient id="paint17_linear_4_14" x1="337.566" y1="88.7067" x2="337.208" y2="37.253" gradientUnits="userSpaceOnUse">
<stop stop-color="#965CF2"/>
<stop offset="1" stop-color="#FF8ADC"/>
</linearGradient>
<linearGradient id="paint18_linear_4_14" x1="370.334" y1="76.9278" x2="358.062" y2="37.8687" gradientUnits="userSpaceOnUse">
<stop stop-color="#965CF2"/>
<stop offset="1" stop-color="#FF8ADC"/>
</linearGradient>
<linearGradient id="paint19_linear_4_14" x1="340.014" y1="32.5493" x2="343.123" y2="36.3289" gradientUnits="userSpaceOnUse">
<stop stop-color="#FF8A78"/>
<stop offset="1" stop-color="#FFA799"/>
</linearGradient>
<linearGradient id="paint20_linear_4_14" x1="384.08" y1="310.617" x2="324.297" y2="75.2509" gradientUnits="userSpaceOnUse">
<stop stop-color="#965CF2"/>
<stop offset="1" stop-color="#FF8ADC"/>
</linearGradient>
<linearGradient id="paint21_linear_4_14" x1="388.08" y1="141.825" x2="366.743" y2="172.18" gradientUnits="userSpaceOnUse">
<stop stop-color="#6D6AFE"/>
<stop offset="1" stop-color="#3FB0F7"/>
</linearGradient>
<linearGradient id="paint22_linear_4_14" x1="319.525" y1="180.392" x2="314.538" y2="187.45" gradientUnits="userSpaceOnUse">
<stop stop-color="#6D6AFE"/>
<stop offset="1" stop-color="#3FB0F7"/>
</linearGradient>
<linearGradient id="paint23_linear_4_14" x1="323.593" y1="179.938" x2="308.307" y2="191.537" gradientUnits="userSpaceOnUse">
<stop stop-color="#6D6AFE"/>
<stop offset="1" stop-color="#3FB0F7"/>
</linearGradient>
<linearGradient id="paint24_linear_4_14" x1="531.667" y1="175.029" x2="509.125" y2="250.227" gradientUnits="userSpaceOnUse">
<stop stop-color="#6D6AFE"/>
<stop offset="1" stop-color="#3FB0F7"/>
</linearGradient>
<linearGradient id="paint25_linear_4_14" x1="514.436" y1="211.718" x2="524.778" y2="179.887" gradientUnits="userSpaceOnUse">
<stop stop-color="#965CF2"/>
<stop offset="1" stop-color="#FF8ADC"/>
</linearGradient>
<linearGradient id="paint26_linear_4_14" x1="512.795" y1="210.216" x2="522.223" y2="194.142" gradientUnits="userSpaceOnUse">
<stop stop-color="#6D6AFE"/>
<stop offset="1" stop-color="#3FB0F7"/>
</linearGradient>
<linearGradient id="paint27_linear_4_14" x1="345.983" y1="117.025" x2="343.83" y2="116.03" gradientUnits="userSpaceOnUse">
<stop stop-color="#FF8A78"/>
<stop offset="1" stop-color="#FFA799"/>
</linearGradient>
<linearGradient id="paint28_linear_4_14" x1="358.99" y1="95.7428" x2="354.424" y2="46.6101" gradientUnits="userSpaceOnUse">
<stop stop-color="#965CF2"/>
<stop offset="1" stop-color="#FF8ADC"/>
</linearGradient>
<linearGradient id="paint29_linear_4_14" x1="302.958" y1="390.762" x2="287.062" y2="466.865" gradientUnits="userSpaceOnUse">
<stop stop-color="#40457F"/>
<stop offset="1" stop-color="#1E2353"/>
</linearGradient>
<linearGradient id="paint30_linear_4_14" x1="306.461" y1="488.103" x2="300.492" y2="496.677" gradientUnits="userSpaceOnUse">
<stop stop-color="#3773B9"/>
<stop offset="1" stop-color="#003C76"/>
</linearGradient>
<linearGradient id="paint31_linear_4_14" x1="317.148" y1="399.353" x2="262.917" y2="473.376" gradientUnits="userSpaceOnUse">
<stop stop-color="#40457F"/>
<stop offset="1" stop-color="#1E2353"/>
</linearGradient>
<linearGradient id="paint32_linear_4_14" x1="275.847" y1="505.573" x2="266.813" y2="507.887" gradientUnits="userSpaceOnUse">
<stop stop-color="#3773B9"/>
<stop offset="1" stop-color="#003C76"/>
</linearGradient>
<linearGradient id="paint33_linear_4_14" x1="332.404" y1="220.77" x2="343.821" y2="204.439" gradientUnits="userSpaceOnUse">
<stop stop-color="#FF8A78"/>
<stop offset="1" stop-color="#FFA799"/>
</linearGradient>
<linearGradient id="paint34_linear_4_14" x1="308.593" y1="261.578" x2="321.79" y2="286.358" gradientUnits="userSpaceOnUse">
<stop stop-color="#A77EF7"/>
<stop offset="1" stop-color="#5E65D6"/>
</linearGradient>
<linearGradient id="paint35_linear_4_14" x1="306.017" y1="301.707" x2="298.185" y2="370.404" gradientUnits="userSpaceOnUse">
<stop stop-color="#A77EF7"/>
<stop offset="1" stop-color="#5E65D6"/>
</linearGradient>
<linearGradient id="paint36_linear_4_14" x1="306.426" y1="281.702" x2="303.988" y2="287.838" gradientUnits="userSpaceOnUse">
<stop stop-color="#FF8A78"/>
<stop offset="1" stop-color="#FFA799"/>
</linearGradient>
<linearGradient id="paint37_linear_4_14" x1="314.704" y1="264.531" x2="311.106" y2="271.445" gradientUnits="userSpaceOnUse">
<stop stop-color="#FFB89E"/>
<stop offset="1" stop-color="#FFA799"/>
</linearGradient>
<linearGradient id="paint38_linear_4_14" x1="307.069" y1="247.725" x2="291.169" y2="256.839" gradientUnits="userSpaceOnUse">
<stop stop-color="#8A4791"/>
<stop offset="1" stop-color="#562E65"/>
</linearGradient>
<linearGradient id="paint39_linear_4_14" x1="387.696" y1="288.749" x2="398.344" y2="274.672" gradientUnits="userSpaceOnUse">
<stop stop-color="#FF8A78"/>
<stop offset="1" stop-color="#FFA799"/>
</linearGradient>
<linearGradient id="paint40_linear_4_14" x1="354.502" y1="293.971" x2="357.723" y2="359.416" gradientUnits="userSpaceOnUse">
<stop stop-color="#A77EF7"/>
<stop offset="1" stop-color="#5E65D6"/>
</linearGradient>
<linearGradient id="paint41_linear_4_14" x1="25.0568" y1="54.7865" x2="40.1243" y2="29.4219" gradientUnits="userSpaceOnUse">
<stop stop-color="#6D6AFE"/>
<stop offset="1" stop-color="#3FB0F7"/>
</linearGradient>
<linearGradient id="paint42_linear_4_14" x1="62.4714" y1="460.764" x2="73.7645" y2="431.581" gradientUnits="userSpaceOnUse">
<stop stop-color="#965CF2"/>
<stop offset="1" stop-color="#FF8ADC"/>
</linearGradient>
</defs>
</svg>