<svg width="69" height="69" viewBox="0 0 69 69" fill="none" xmlns="http://www.w3.org/2000/svg">
<path d="M34.5 0C15.456 0 0 15.456 0 34.5C0 53.544 15.456 69 34.5 69C53.544 69 69 53.544 69 34.5C69 15.456 53.544 0 34.5 0ZM34.5 10.35C40.227 10.35 44.85 14.973 44.85 20.7C44.85 26.427 40.227 31.05 34.5 31.05C28.773 31.05 24.15 26.427 24.15 20.7C24.15 14.973 28.773 10.35 34.5 10.35ZM34.5 59.34C25.875 59.34 18.2505 54.924 13.8 48.231C13.9035 41.3655 27.6 37.605 34.5 37.605C41.3655 37.605 55.0965 41.3655 55.2 48.231C50.7495 54.924 43.125 59.34 34.5 59.34Z" fill="#965CF2"/>
</svg>
